<mxfile host="app.diagrams.net" modified="2022-04-11T16:16:18.167Z" agent="5.0 (Windows)" etag="gQnStOuRiAPLUAd3KfU4" version="17.4.2" type="github" pages="3">
  <diagram id="kgpKYQtTHZ0yAKxKKP6v" name="Page-1">
    <mxGraphModel dx="2062" dy="1104" grid="1" gridSize="10" guides="1" tooltips="1" connect="1" arrows="1" fold="1" page="1" pageScale="1" pageWidth="1169" pageHeight="827" math="0" shadow="0">
      <root>
        <mxCell id="0" />
        <mxCell id="1" parent="0" />
        <mxCell id="oXZDFlRtzp5a2ljeOnX9-1" value="Alternative" style="shape=umlFrame;whiteSpace=wrap;html=1;allowArrows=0;connectable=1;strokeColor=#FF0000;" parent="1" vertex="1">
          <mxGeometry x="10" y="270" width="1150" height="1370" as="geometry" />
        </mxCell>
        <mxCell id="pFUeYYtuB_Ah4BRSZO7Q-4" value="Alternative" style="shape=umlFrame;whiteSpace=wrap;html=1;allowArrows=0;connectable=0;strokeColor=#00FF00;" parent="1" vertex="1">
          <mxGeometry x="30" y="460" width="1110" height="1160" as="geometry" />
        </mxCell>
        <mxCell id="pFUeYYtuB_Ah4BRSZO7Q-10" value="Alternative" style="shape=umlFrame;whiteSpace=wrap;html=1;allowArrows=0;connectable=1;strokeColor=#0000FF;" parent="1" vertex="1">
          <mxGeometry x="50" y="520" width="1070" height="580" as="geometry" />
        </mxCell>
        <mxCell id="3nuBFxr9cyL0pnOWT2aG-1" value="Application DB" style="shape=umlLifeline;perimeter=lifelinePerimeter;container=1;collapsible=0;recursiveResize=0;rounded=0;shadow=0;strokeWidth=1;movable=1;" parent="1" vertex="1">
          <mxGeometry x="270" y="180" width="100" height="1460" as="geometry" />
        </mxCell>
        <mxCell id="pFUeYYtuB_Ah4BRSZO7Q-70" value="" style="points=[];perimeter=orthogonalPerimeter;rounded=0;shadow=0;strokeWidth=1;" parent="3nuBFxr9cyL0pnOWT2aG-1" vertex="1">
          <mxGeometry x="45" y="1350" width="10" height="60" as="geometry" />
        </mxCell>
        <mxCell id="pFUeYYtuB_Ah4BRSZO7Q-73" value="" style="points=[];perimeter=orthogonalPerimeter;rounded=0;shadow=0;strokeWidth=1;" parent="3nuBFxr9cyL0pnOWT2aG-1" vertex="1">
          <mxGeometry x="45" y="1125" width="10" height="60" as="geometry" />
        </mxCell>
        <mxCell id="pFUeYYtuB_Ah4BRSZO7Q-87" value="" style="points=[];perimeter=orthogonalPerimeter;rounded=0;shadow=0;strokeWidth=1;" parent="3nuBFxr9cyL0pnOWT2aG-1" vertex="1">
          <mxGeometry x="45.00000000000006" y="815" width="10" height="60" as="geometry" />
        </mxCell>
        <mxCell id="G3XIafxmYG4LyeWUDXBA-14" value="Firebase" style="shape=umlLifeline;perimeter=lifelinePerimeter;container=1;collapsible=0;recursiveResize=0;rounded=0;shadow=0;strokeWidth=1;movable=1;" parent="1" vertex="1">
          <mxGeometry x="750" y="180" width="100" height="1460" as="geometry" />
        </mxCell>
        <mxCell id="pFUeYYtuB_Ah4BRSZO7Q-63" value="" style="endArrow=classic;html=1;rounded=0;dashed=1;" parent="G3XIafxmYG4LyeWUDXBA-14" edge="1">
          <mxGeometry width="50" height="50" relative="1" as="geometry">
            <mxPoint x="56.13" y="1300" as="sourcePoint" />
            <mxPoint x="286.13" y="1301" as="targetPoint" />
          </mxGeometry>
        </mxCell>
        <mxCell id="G3XIafxmYG4LyeWUDXBA-20" value="Application" style="shape=umlLifeline;perimeter=lifelinePerimeter;container=1;collapsible=0;recursiveResize=0;rounded=0;shadow=0;strokeWidth=1;movable=1;" parent="1" vertex="1">
          <mxGeometry x="990" y="180" width="100" height="1460" as="geometry" />
        </mxCell>
        <mxCell id="pFUeYYtuB_Ah4BRSZO7Q-77" value="" style="points=[];perimeter=orthogonalPerimeter;rounded=0;shadow=0;strokeWidth=1;" parent="G3XIafxmYG4LyeWUDXBA-20" vertex="1">
          <mxGeometry x="45" y="110" width="10" height="110" as="geometry" />
        </mxCell>
        <mxCell id="oXZDFlRtzp5a2ljeOnX9-7" value="" style="points=[];perimeter=orthogonalPerimeter;rounded=0;shadow=0;strokeWidth=1;" parent="G3XIafxmYG4LyeWUDXBA-20" vertex="1">
          <mxGeometry x="41" y="140" width="10" height="70" as="geometry" />
        </mxCell>
        <mxCell id="oXZDFlRtzp5a2ljeOnX9-9" value="" style="endArrow=classic;html=1;rounded=0;exitX=0.1;exitY=0.182;exitDx=0;exitDy=0;exitPerimeter=0;" parent="G3XIafxmYG4LyeWUDXBA-20" source="pFUeYYtuB_Ah4BRSZO7Q-77" edge="1">
          <mxGeometry width="50" height="50" relative="1" as="geometry">
            <mxPoint x="40" y="160" as="sourcePoint" />
            <mxPoint x="40" y="170" as="targetPoint" />
            <Array as="points">
              <mxPoint x="-10" y="130" />
              <mxPoint x="-10" y="170" />
            </Array>
          </mxGeometry>
        </mxCell>
        <mxCell id="pFUeYYtuB_Ah4BRSZO7Q-66" value="" style="endArrow=classic;html=1;rounded=0;ignoreEdge=0;exitX=-0.037;exitY=0.197;exitDx=0;exitDy=0;exitPerimeter=0;" parent="G3XIafxmYG4LyeWUDXBA-20" edge="1">
          <mxGeometry width="50" height="50" relative="1" as="geometry">
            <mxPoint x="44.99999999999977" y="1379.9999999999998" as="sourcePoint" />
            <mxPoint x="-664" y="1380" as="targetPoint" />
          </mxGeometry>
        </mxCell>
        <mxCell id="oXZDFlRtzp5a2ljeOnX9-10" value="Send to Song list page" style="text;html=1;strokeColor=none;fillColor=none;align=center;verticalAlign=middle;whiteSpace=wrap;rounded=0;fontSize=14;" parent="1" vertex="1">
          <mxGeometry x="890" y="320" width="90" height="30" as="geometry" />
        </mxCell>
        <mxCell id="pFUeYYtuB_Ah4BRSZO7Q-2" value="" style="endArrow=none;dashed=1;html=1;rounded=0;exitX=0;exitY=0.102;exitDx=0;exitDy=0;exitPerimeter=0;entryX=1;entryY=0.102;entryDx=0;entryDy=0;entryPerimeter=0;strokeColor=#FF0000;" parent="1" source="oXZDFlRtzp5a2ljeOnX9-1" target="oXZDFlRtzp5a2ljeOnX9-1" edge="1">
          <mxGeometry width="50" height="50" relative="1" as="geometry">
            <mxPoint x="80" y="510" as="sourcePoint" />
            <mxPoint x="1160" y="423" as="targetPoint" />
          </mxGeometry>
        </mxCell>
        <mxCell id="pFUeYYtuB_Ah4BRSZO7Q-3" value="[Not logged in]" style="text;html=1;strokeColor=none;fillColor=none;align=center;verticalAlign=middle;whiteSpace=wrap;rounded=0;fontSize=14;" parent="1" vertex="1">
          <mxGeometry x="10" y="420" width="100" height="30" as="geometry" />
        </mxCell>
        <mxCell id="pFUeYYtuB_Ah4BRSZO7Q-5" value="" style="group" parent="1" vertex="1" connectable="0">
          <mxGeometry x="70" y="180" width="20" height="40" as="geometry" />
        </mxCell>
        <mxCell id="pFUeYYtuB_Ah4BRSZO7Q-6" value="" style="group" parent="pFUeYYtuB_Ah4BRSZO7Q-5" vertex="1" connectable="0">
          <mxGeometry width="20" height="40" as="geometry" />
        </mxCell>
        <mxCell id="pFUeYYtuB_Ah4BRSZO7Q-7" value="" style="group" parent="pFUeYYtuB_Ah4BRSZO7Q-6" vertex="1" connectable="0">
          <mxGeometry width="20" height="40" as="geometry" />
        </mxCell>
        <mxCell id="G3XIafxmYG4LyeWUDXBA-1" value="User" style="shape=umlActor;verticalLabelPosition=bottom;verticalAlign=top;html=1;outlineConnect=0;movable=1;" parent="pFUeYYtuB_Ah4BRSZO7Q-7" vertex="1">
          <mxGeometry width="20" height="40" as="geometry" />
        </mxCell>
        <mxCell id="G3XIafxmYG4LyeWUDXBA-11" value="" style="endArrow=none;html=1;rounded=0;dashed=1;movable=1;exitX=0.06;exitY=1.001;exitDx=0;exitDy=0;exitPerimeter=0;" parent="pFUeYYtuB_Ah4BRSZO7Q-7" source="oXZDFlRtzp5a2ljeOnX9-1" target="G3XIafxmYG4LyeWUDXBA-1" edge="1">
          <mxGeometry width="50" height="50" relative="1" as="geometry">
            <mxPoint x="143.33333333333331" y="1720" as="sourcePoint" />
            <mxPoint x="143.33333333333331" y="269.2" as="targetPoint" />
            <Array as="points" />
          </mxGeometry>
        </mxCell>
        <mxCell id="oXZDFlRtzp5a2ljeOnX9-8" value="[Already logged in]" style="text;html=1;strokeColor=none;fillColor=none;align=center;verticalAlign=middle;whiteSpace=wrap;rounded=0;fontSize=14;" parent="1" vertex="1">
          <mxGeometry x="10" y="300" width="120" height="30" as="geometry" />
        </mxCell>
        <mxCell id="pFUeYYtuB_Ah4BRSZO7Q-8" value="[Has account]" style="text;html=1;strokeColor=none;fillColor=none;align=center;verticalAlign=middle;whiteSpace=wrap;rounded=0;fontSize=14;" parent="1" vertex="1">
          <mxGeometry x="30" y="490" width="90" height="30" as="geometry" />
        </mxCell>
        <mxCell id="pFUeYYtuB_Ah4BRSZO7Q-12" value="[Forgot Password]" style="text;html=1;strokeColor=none;fillColor=none;align=center;verticalAlign=middle;whiteSpace=wrap;rounded=0;fontSize=14;" parent="1" vertex="1">
          <mxGeometry x="50" y="550" width="120" height="30" as="geometry" />
        </mxCell>
        <mxCell id="pFUeYYtuB_Ah4BRSZO7Q-13" value="" style="points=[];perimeter=orthogonalPerimeter;rounded=0;shadow=0;strokeWidth=1;" parent="1" vertex="1">
          <mxGeometry x="1035" y="570" width="10" height="140" as="geometry" />
        </mxCell>
        <mxCell id="pFUeYYtuB_Ah4BRSZO7Q-14" value="" style="endArrow=classic;html=1;rounded=0;entryX=0.043;entryY=0.154;entryDx=0;entryDy=0;entryPerimeter=0;" parent="1" target="pFUeYYtuB_Ah4BRSZO7Q-13" edge="1">
          <mxGeometry width="50" height="50" relative="1" as="geometry">
            <mxPoint x="80" y="589" as="sourcePoint" />
            <mxPoint x="1030" y="590" as="targetPoint" />
          </mxGeometry>
        </mxCell>
        <mxCell id="pFUeYYtuB_Ah4BRSZO7Q-15" value="Enter email" style="text;html=1;strokeColor=none;fillColor=none;align=center;verticalAlign=middle;whiteSpace=wrap;rounded=0;fontSize=14;" parent="1" vertex="1">
          <mxGeometry x="270" y="560" width="170" height="30" as="geometry" />
        </mxCell>
        <mxCell id="pFUeYYtuB_Ah4BRSZO7Q-16" value="" style="points=[];perimeter=orthogonalPerimeter;rounded=0;shadow=0;strokeWidth=1;" parent="1" vertex="1">
          <mxGeometry x="795" y="620" width="10" height="60" as="geometry" />
        </mxCell>
        <mxCell id="pFUeYYtuB_Ah4BRSZO7Q-17" value="" style="endArrow=classic;html=1;rounded=0;entryX=0.971;entryY=0.179;entryDx=0;entryDy=0;entryPerimeter=0;exitX=1;exitY=1;exitDx=0;exitDy=0;" parent="1" source="pFUeYYtuB_Ah4BRSZO7Q-18" target="pFUeYYtuB_Ah4BRSZO7Q-16" edge="1">
          <mxGeometry width="50" height="50" relative="1" as="geometry">
            <mxPoint x="90" y="599" as="sourcePoint" />
            <mxPoint x="1045.4300000000003" y="600.02" as="targetPoint" />
          </mxGeometry>
        </mxCell>
        <mxCell id="pFUeYYtuB_Ah4BRSZO7Q-18" value="Request password reset email" style="text;html=1;strokeColor=none;fillColor=none;align=center;verticalAlign=middle;whiteSpace=wrap;rounded=0;fontSize=14;" parent="1" vertex="1">
          <mxGeometry x="810" y="600" width="225" height="30" as="geometry" />
        </mxCell>
        <mxCell id="pFUeYYtuB_Ah4BRSZO7Q-20" value="" style="endArrow=classic;html=1;rounded=0;entryX=-0.1;entryY=0.655;entryDx=0;entryDy=0;entryPerimeter=0;exitX=1.167;exitY=0.67;exitDx=0;exitDy=0;exitPerimeter=0;dashed=1;" parent="1" source="pFUeYYtuB_Ah4BRSZO7Q-16" target="pFUeYYtuB_Ah4BRSZO7Q-13" edge="1">
          <mxGeometry width="50" height="50" relative="1" as="geometry">
            <mxPoint x="90.00000000000011" y="599" as="sourcePoint" />
            <mxPoint x="1045.43" y="600.02" as="targetPoint" />
          </mxGeometry>
        </mxCell>
        <mxCell id="pFUeYYtuB_Ah4BRSZO7Q-21" value="Respond result" style="text;html=1;strokeColor=none;fillColor=none;align=center;verticalAlign=middle;whiteSpace=wrap;rounded=0;fontSize=14;" parent="1" vertex="1">
          <mxGeometry x="810" y="630" width="205" height="30" as="geometry" />
        </mxCell>
        <mxCell id="pFUeYYtuB_Ah4BRSZO7Q-22" value="" style="endArrow=none;dashed=1;html=1;rounded=0;exitX=-0.001;exitY=0.428;exitDx=0;exitDy=0;exitPerimeter=0;strokeColor=#0000FF;entryX=1.001;entryY=0.427;entryDx=0;entryDy=0;entryPerimeter=0;" parent="1" source="pFUeYYtuB_Ah4BRSZO7Q-10" target="pFUeYYtuB_Ah4BRSZO7Q-10" edge="1">
          <mxGeometry width="50" height="50" relative="1" as="geometry">
            <mxPoint x="50" y="660" as="sourcePoint" />
            <mxPoint x="1120" y="720" as="targetPoint" />
          </mxGeometry>
        </mxCell>
        <mxCell id="pFUeYYtuB_Ah4BRSZO7Q-23" value="" style="endArrow=classic;html=1;rounded=0;exitX=1;exitY=1;exitDx=0;exitDy=0;" parent="1" edge="1">
          <mxGeometry width="50" height="50" relative="1" as="geometry">
            <mxPoint x="1035.29" y="700" as="sourcePoint" />
            <mxPoint x="81" y="701" as="targetPoint" />
          </mxGeometry>
        </mxCell>
        <mxCell id="pFUeYYtuB_Ah4BRSZO7Q-24" value="Show action status" style="text;html=1;strokeColor=none;fillColor=none;align=center;verticalAlign=middle;whiteSpace=wrap;rounded=0;fontSize=14;" parent="1" vertex="1">
          <mxGeometry x="810" y="670" width="165" height="30" as="geometry" />
        </mxCell>
        <mxCell id="pFUeYYtuB_Ah4BRSZO7Q-25" value="[Login Page]" style="text;html=1;strokeColor=none;fillColor=none;align=center;verticalAlign=middle;whiteSpace=wrap;rounded=0;fontSize=14;" parent="1" vertex="1">
          <mxGeometry x="50" y="730" width="90" height="30" as="geometry" />
        </mxCell>
        <mxCell id="pFUeYYtuB_Ah4BRSZO7Q-26" value="" style="endArrow=classic;html=1;rounded=0;entryX=0.043;entryY=0.154;entryDx=0;entryDy=0;entryPerimeter=0;" parent="1" edge="1">
          <mxGeometry width="50" height="50" relative="1" as="geometry">
            <mxPoint x="79.5700000000001" y="779" as="sourcePoint" />
            <mxPoint x="1035" y="781.5600000000002" as="targetPoint" />
          </mxGeometry>
        </mxCell>
        <mxCell id="pFUeYYtuB_Ah4BRSZO7Q-27" value="Enter email, password" style="text;html=1;strokeColor=none;fillColor=none;align=center;verticalAlign=middle;whiteSpace=wrap;rounded=0;fontSize=14;" parent="1" vertex="1">
          <mxGeometry x="269.57" y="750" width="170" height="30" as="geometry" />
        </mxCell>
        <mxCell id="pFUeYYtuB_Ah4BRSZO7Q-29" value="" style="points=[];perimeter=orthogonalPerimeter;rounded=0;shadow=0;strokeWidth=1;" parent="1" vertex="1">
          <mxGeometry x="1035" y="760" width="10" height="230" as="geometry" />
        </mxCell>
        <mxCell id="pFUeYYtuB_Ah4BRSZO7Q-30" value="" style="points=[];perimeter=orthogonalPerimeter;rounded=0;shadow=0;strokeWidth=1;" parent="1" vertex="1">
          <mxGeometry x="795" y="810" width="10" height="60" as="geometry" />
        </mxCell>
        <mxCell id="pFUeYYtuB_Ah4BRSZO7Q-31" value="" style="endArrow=classic;html=1;rounded=0;entryX=0.971;entryY=0.179;entryDx=0;entryDy=0;entryPerimeter=0;exitX=-0.071;exitY=0.26;exitDx=0;exitDy=0;exitPerimeter=0;" parent="1" source="pFUeYYtuB_Ah4BRSZO7Q-29" target="pFUeYYtuB_Ah4BRSZO7Q-30" edge="1">
          <mxGeometry width="50" height="50" relative="1" as="geometry">
            <mxPoint x="90" y="789" as="sourcePoint" />
            <mxPoint x="1045.4300000000003" y="790.02" as="targetPoint" />
          </mxGeometry>
        </mxCell>
        <mxCell id="pFUeYYtuB_Ah4BRSZO7Q-32" value="Request Authentication" style="text;html=1;strokeColor=none;fillColor=none;align=center;verticalAlign=middle;whiteSpace=wrap;rounded=0;fontSize=14;" parent="1" vertex="1">
          <mxGeometry x="810" y="800" width="225" height="20" as="geometry" />
        </mxCell>
        <mxCell id="pFUeYYtuB_Ah4BRSZO7Q-33" value="" style="endArrow=classic;html=1;rounded=0;entryX=-0.055;entryY=0.392;entryDx=0;entryDy=0;entryPerimeter=0;exitX=1.167;exitY=0.67;exitDx=0;exitDy=0;exitPerimeter=0;dashed=1;" parent="1" source="pFUeYYtuB_Ah4BRSZO7Q-30" target="pFUeYYtuB_Ah4BRSZO7Q-29" edge="1">
          <mxGeometry width="50" height="50" relative="1" as="geometry">
            <mxPoint x="90.00000000000011" y="789" as="sourcePoint" />
            <mxPoint x="1045.43" y="790.02" as="targetPoint" />
          </mxGeometry>
        </mxCell>
        <mxCell id="pFUeYYtuB_Ah4BRSZO7Q-34" value="Respond result" style="text;html=1;strokeColor=none;fillColor=none;align=center;verticalAlign=middle;whiteSpace=wrap;rounded=0;fontSize=14;" parent="1" vertex="1">
          <mxGeometry x="872.5" y="830" width="100" height="20" as="geometry" />
        </mxCell>
        <mxCell id="pFUeYYtuB_Ah4BRSZO7Q-35" value="[If authentication failed] Show Authentication failed message" style="text;html=1;strokeColor=none;fillColor=none;align=center;verticalAlign=middle;whiteSpace=wrap;rounded=0;fontSize=14;" parent="1" vertex="1">
          <mxGeometry x="540" y="860" width="435" height="30" as="geometry" />
        </mxCell>
        <mxCell id="pFUeYYtuB_Ah4BRSZO7Q-36" value="" style="endArrow=classic;html=1;rounded=0;exitX=1;exitY=1;exitDx=0;exitDy=0;" parent="1" edge="1">
          <mxGeometry width="50" height="50" relative="1" as="geometry">
            <mxPoint x="1035" y="890" as="sourcePoint" />
            <mxPoint x="80.71000000000024" y="891" as="targetPoint" />
          </mxGeometry>
        </mxCell>
        <mxCell id="pFUeYYtuB_Ah4BRSZO7Q-37" value="" style="points=[];perimeter=orthogonalPerimeter;rounded=0;shadow=0;strokeWidth=1;" parent="1" vertex="1">
          <mxGeometry x="1041" y="896" width="10" height="84" as="geometry" />
        </mxCell>
        <mxCell id="pFUeYYtuB_Ah4BRSZO7Q-38" value="" style="endArrow=classic;html=1;rounded=0;exitX=1.133;exitY=0.522;exitDx=0;exitDy=0;exitPerimeter=0;" parent="1" source="pFUeYYtuB_Ah4BRSZO7Q-29" edge="1">
          <mxGeometry width="50" height="50" relative="1" as="geometry">
            <mxPoint x="1037.2900000000002" y="950" as="sourcePoint" />
            <mxPoint x="1050" y="920" as="targetPoint" />
            <Array as="points">
              <mxPoint x="1070" y="880" />
              <mxPoint x="1070" y="920" />
            </Array>
          </mxGeometry>
        </mxCell>
        <mxCell id="pFUeYYtuB_Ah4BRSZO7Q-39" value="[If authentication success] Send to Song list page" style="text;html=1;strokeColor=none;fillColor=default;align=center;verticalAlign=middle;whiteSpace=wrap;rounded=0;fontSize=14;" parent="1" vertex="1">
          <mxGeometry x="1053" y="935" width="107" height="50" as="geometry" />
        </mxCell>
        <mxCell id="pFUeYYtuB_Ah4BRSZO7Q-41" value="" style="endArrow=none;dashed=1;html=1;rounded=0;strokeColor=#00FF00;" parent="1" edge="1">
          <mxGeometry width="50" height="50" relative="1" as="geometry">
            <mxPoint x="30" y="1130" as="sourcePoint" />
            <mxPoint x="1140" y="1130" as="targetPoint" />
          </mxGeometry>
        </mxCell>
        <mxCell id="pFUeYYtuB_Ah4BRSZO7Q-42" value="[Sign up]" style="text;html=1;strokeColor=none;fillColor=default;align=center;verticalAlign=middle;whiteSpace=wrap;rounded=0;fontSize=14;" parent="1" vertex="1">
          <mxGeometry x="40" y="1150" width="60" height="20" as="geometry" />
        </mxCell>
        <mxCell id="pFUeYYtuB_Ah4BRSZO7Q-45" value="" style="endArrow=classic;html=1;rounded=0;entryX=0.043;entryY=0.154;entryDx=0;entryDy=0;entryPerimeter=0;" parent="1" edge="1">
          <mxGeometry width="50" height="50" relative="1" as="geometry">
            <mxPoint x="80.64000000000016" y="1199" as="sourcePoint" />
            <mxPoint x="1036.07" y="1201.5600000000002" as="targetPoint" />
          </mxGeometry>
        </mxCell>
        <mxCell id="pFUeYYtuB_Ah4BRSZO7Q-46" value="Enter email, password, age, explicit preference" style="text;html=1;strokeColor=none;fillColor=none;align=center;verticalAlign=middle;whiteSpace=wrap;rounded=0;fontSize=14;" parent="1" vertex="1">
          <mxGeometry x="160" y="1170" width="310" height="30" as="geometry" />
        </mxCell>
        <mxCell id="pFUeYYtuB_Ah4BRSZO7Q-47" value="" style="points=[];perimeter=orthogonalPerimeter;rounded=0;shadow=0;strokeWidth=1;" parent="1" vertex="1">
          <mxGeometry x="1036.07" y="1180" width="10" height="410" as="geometry" />
        </mxCell>
        <mxCell id="pFUeYYtuB_Ah4BRSZO7Q-48" value="" style="points=[];perimeter=orthogonalPerimeter;rounded=0;shadow=0;strokeWidth=1;" parent="1" vertex="1">
          <mxGeometry x="796.07" y="1230" width="10" height="270" as="geometry" />
        </mxCell>
        <mxCell id="pFUeYYtuB_Ah4BRSZO7Q-49" value="" style="endArrow=classic;html=1;rounded=0;ignoreEdge=0;" parent="1" edge="1">
          <mxGeometry width="50" height="50" relative="1" as="geometry">
            <mxPoint x="1036" y="1241" as="sourcePoint" />
            <mxPoint x="806" y="1241" as="targetPoint" />
          </mxGeometry>
        </mxCell>
        <mxCell id="pFUeYYtuB_Ah4BRSZO7Q-50" value="Create new user" style="text;html=1;strokeColor=none;fillColor=none;align=center;verticalAlign=middle;whiteSpace=wrap;rounded=0;fontSize=14;" parent="1" vertex="1">
          <mxGeometry x="830" y="1220" width="170" height="20" as="geometry" />
        </mxCell>
        <mxCell id="pFUeYYtuB_Ah4BRSZO7Q-51" value="" style="endArrow=classic;html=1;rounded=0;dashed=1;" parent="1" edge="1">
          <mxGeometry width="50" height="50" relative="1" as="geometry">
            <mxPoint x="806" y="1269" as="sourcePoint" />
            <mxPoint x="1036" y="1270" as="targetPoint" />
          </mxGeometry>
        </mxCell>
        <mxCell id="pFUeYYtuB_Ah4BRSZO7Q-52" value="Respond result" style="text;html=1;strokeColor=none;fillColor=none;align=center;verticalAlign=middle;whiteSpace=wrap;rounded=0;fontSize=14;" parent="1" vertex="1">
          <mxGeometry x="873.57" y="1250" width="100" height="20" as="geometry" />
        </mxCell>
        <mxCell id="pFUeYYtuB_Ah4BRSZO7Q-53" value="[If creation failed] Show respond result" style="text;html=1;strokeColor=none;fillColor=none;align=center;verticalAlign=middle;whiteSpace=wrap;rounded=0;fontSize=14;" parent="1" vertex="1">
          <mxGeometry x="501.07" y="1260" width="270.43" height="30" as="geometry" />
        </mxCell>
        <mxCell id="pFUeYYtuB_Ah4BRSZO7Q-54" value="" style="endArrow=classic;html=1;rounded=0;exitX=1;exitY=1;exitDx=0;exitDy=0;" parent="1" edge="1">
          <mxGeometry width="50" height="50" relative="1" as="geometry">
            <mxPoint x="1037.1399999999999" y="1290" as="sourcePoint" />
            <mxPoint x="82.85000000000036" y="1291" as="targetPoint" />
          </mxGeometry>
        </mxCell>
        <mxCell id="pFUeYYtuB_Ah4BRSZO7Q-58" value="" style="endArrow=classic;html=1;rounded=0;ignoreEdge=0;exitX=-0.037;exitY=0.197;exitDx=0;exitDy=0;exitPerimeter=0;" parent="1" edge="1">
          <mxGeometry width="50" height="50" relative="1" as="geometry">
            <mxPoint x="1034.6999999999996" y="1441.0699999999997" as="sourcePoint" />
            <mxPoint x="805" y="1442" as="targetPoint" />
          </mxGeometry>
        </mxCell>
        <mxCell id="pFUeYYtuB_Ah4BRSZO7Q-59" value="[if creation success] Request verification email" style="text;html=1;strokeColor=none;fillColor=none;align=center;verticalAlign=middle;whiteSpace=wrap;rounded=0;fontSize=14;" parent="1" vertex="1">
          <mxGeometry x="823.63" y="1410" width="180.37" height="30" as="geometry" />
        </mxCell>
        <mxCell id="pFUeYYtuB_Ah4BRSZO7Q-65" value="Email Verification success" style="text;html=1;strokeColor=none;fillColor=none;align=center;verticalAlign=middle;whiteSpace=wrap;rounded=0;fontSize=14;" parent="1" vertex="1">
          <mxGeometry x="828.63" y="1460" width="170" height="20" as="geometry" />
        </mxCell>
        <mxCell id="pFUeYYtuB_Ah4BRSZO7Q-67" value="[if verification success] Account verified" style="text;html=1;strokeColor=none;fillColor=none;align=center;verticalAlign=middle;whiteSpace=wrap;rounded=0;fontSize=14;" parent="1" vertex="1">
          <mxGeometry x="823.63" y="1530" width="180.37" height="30" as="geometry" />
        </mxCell>
        <mxCell id="pFUeYYtuB_Ah4BRSZO7Q-71" value="" style="endArrow=classic;html=1;rounded=0;ignoreEdge=0;exitX=-0.037;exitY=0.197;exitDx=0;exitDy=0;exitPerimeter=0;" parent="1" edge="1">
          <mxGeometry width="50" height="50" relative="1" as="geometry">
            <mxPoint x="1037.3499999999997" y="1331.0699999999997" as="sourcePoint" />
            <mxPoint x="325" y="1330" as="targetPoint" />
          </mxGeometry>
        </mxCell>
        <mxCell id="pFUeYYtuB_Ah4BRSZO7Q-72" value="[if creation success] Save account info" style="text;html=1;strokeColor=none;fillColor=none;align=center;verticalAlign=middle;whiteSpace=wrap;rounded=0;fontSize=14;" parent="1" vertex="1">
          <mxGeometry x="826.2800000000001" y="1300" width="180.37" height="30" as="geometry" />
        </mxCell>
        <mxCell id="pFUeYYtuB_Ah4BRSZO7Q-84" value="" style="points=[];perimeter=orthogonalPerimeter;rounded=0;shadow=0;strokeWidth=1;" parent="1" vertex="1">
          <mxGeometry x="1041" y="1350" width="10" height="70" as="geometry" />
        </mxCell>
        <mxCell id="pFUeYYtuB_Ah4BRSZO7Q-85" value="" style="endArrow=classic;html=1;rounded=0;exitX=0.1;exitY=0.182;exitDx=0;exitDy=0;exitPerimeter=0;" parent="1" edge="1">
          <mxGeometry width="50" height="50" relative="1" as="geometry">
            <mxPoint x="1046" y="1340.02" as="sourcePoint" />
            <mxPoint x="1050" y="1380" as="targetPoint" />
            <Array as="points">
              <mxPoint x="1100" y="1340" />
              <mxPoint x="1100" y="1380" />
            </Array>
          </mxGeometry>
        </mxCell>
        <mxCell id="pFUeYYtuB_Ah4BRSZO7Q-86" value="Send to Song list page" style="text;html=1;strokeColor=none;fillColor=none;align=center;verticalAlign=middle;whiteSpace=wrap;rounded=0;fontSize=14;" parent="1" vertex="1">
          <mxGeometry x="1053" y="1390" width="80" height="30" as="geometry" />
        </mxCell>
        <mxCell id="pFUeYYtuB_Ah4BRSZO7Q-88" value="" style="endArrow=classic;html=1;rounded=0;ignoreEdge=0;exitX=-0.037;exitY=0.197;exitDx=0;exitDy=0;exitPerimeter=0;" parent="1" edge="1">
          <mxGeometry width="50" height="50" relative="1" as="geometry">
            <mxPoint x="1040.9999999999998" y="1021.0699999999997" as="sourcePoint" />
            <mxPoint x="327" y="1019" as="targetPoint" />
          </mxGeometry>
        </mxCell>
        <mxCell id="pFUeYYtuB_Ah4BRSZO7Q-89" value="[if authentication success] Save account info" style="text;html=1;strokeColor=none;fillColor=none;align=center;verticalAlign=middle;whiteSpace=wrap;rounded=0;fontSize=14;" parent="1" vertex="1">
          <mxGeometry x="829.9300000000001" y="990" width="180.37" height="30" as="geometry" />
        </mxCell>
        <mxCell id="pFUeYYtuB_Ah4BRSZO7Q-91" value="&lt;div align=&quot;left&quot;&gt;&lt;u&gt;&lt;b&gt;&lt;font style=&quot;font-size: 17px&quot;&gt;&lt;br&gt;&lt;/font&gt;&lt;/b&gt;&lt;/u&gt;&lt;/div&gt;&lt;div align=&quot;left&quot;&gt;&lt;u&gt;&lt;b&gt;&lt;font style=&quot;font-size: 17px&quot;&gt;&lt;br&gt;&lt;/font&gt;&lt;/b&gt;&lt;/u&gt;&lt;/div&gt;&lt;div align=&quot;left&quot;&gt;&lt;u&gt;&lt;b&gt;&lt;font style=&quot;font-size: 17px&quot;&gt;&lt;/font&gt;&lt;/b&gt;&lt;/u&gt;&lt;b&gt;&lt;font style=&quot;font-size: 17px&quot;&gt;&lt;span style=&quot;white-space: pre&quot;&gt;&lt;span style=&quot;white-space: pre&quot;&gt; &lt;/span&gt; &lt;/span&gt;&lt;/font&gt;&lt;/b&gt;&lt;u&gt;&lt;b&gt;&lt;font style=&quot;font-size: 17px&quot;&gt;Activity Diagram&lt;/font&gt;&lt;/b&gt;&lt;/u&gt;&lt;/div&gt;&lt;div align=&quot;left&quot;&gt;&lt;u&gt;&lt;b&gt;&lt;font style=&quot;font-size: 17px&quot;&gt;&lt;/font&gt;&lt;/b&gt;&lt;/u&gt;&lt;b&gt;&lt;font style=&quot;font-size: 17px&quot;&gt;&lt;span style=&quot;white-space: pre&quot;&gt;&lt;span style=&quot;white-space: pre&quot;&gt; &lt;/span&gt; &lt;/span&gt;&lt;/font&gt;&lt;/b&gt;&lt;u&gt;&lt;b&gt;&lt;font style=&quot;font-size: 17px&quot;&gt;for PocketKaraoke&lt;/font&gt;&lt;/b&gt;&lt;/u&gt;&lt;/div&gt;&lt;div align=&quot;left&quot;&gt;&lt;br&gt;&lt;/div&gt;&lt;div align=&quot;left&quot;&gt;&lt;br&gt;&lt;/div&gt;&lt;div align=&quot;left&quot;&gt;&lt;br&gt;&lt;/div&gt;" style="rounded=0;whiteSpace=wrap;html=1;fontSize=9;fillColor=none;align=left;" parent="1" vertex="1">
          <mxGeometry x="8" y="10" width="1152" height="120" as="geometry" />
        </mxCell>
        <mxCell id="pFUeYYtuB_Ah4BRSZO7Q-92" value="&lt;table dir=&quot;ltr&quot; style=&quot;table-layout: fixed ; font-size: 10pt ; font-family: &amp;quot;arial&amp;quot; ; width: 0px ; border-collapse: collapse ; border: none&quot; cellspacing=&quot;0&quot; cellpadding=&quot;0&quot; border=&quot;1&quot;&gt;&lt;colgroup&gt;&lt;col width=&quot;98&quot;&gt;&lt;col width=&quot;235&quot;&gt;&lt;col width=&quot;143&quot;&gt;&lt;/colgroup&gt;&lt;tbody&gt;&lt;tr style=&quot;height: 21px&quot;&gt;&lt;td style=&quot;border-color: rgb(0, 0, 0); border-style: solid; border-width: 1px; overflow: hidden; padding: 0px 3px; vertical-align: middle; font-size: 12pt; font-weight: bold; overflow-wrap: break-word; text-align: center;&quot; rowspan=&quot;3&quot; colspan=&quot;1&quot;&gt;&lt;span&gt;&lt;div style=&quot;max-height: 63px&quot;&gt;9&lt;/div&gt;&lt;/span&gt;&lt;/td&gt;&lt;td style=&quot;border-top: 1px solid rgb(0, 0, 0); border-right: 1px solid rgb(0, 0, 0); border-bottom: 1px solid rgb(0, 0, 0); overflow: hidden; padding: 0px 3px; vertical-align: bottom; overflow-wrap: break-word;&quot;&gt;Md. Fuad Hasan&lt;/td&gt;&lt;td style=&quot;border-top: 1px solid rgb(0, 0, 0); border-right: 1px solid rgb(0, 0, 0); border-bottom: 1px solid rgb(0, 0, 0); overflow: hidden; padding: 0px 3px; vertical-align: bottom; overflow-wrap: break-word; text-align: center;&quot;&gt;20101345&lt;/td&gt;&lt;/tr&gt;&lt;tr style=&quot;height: 21px&quot;&gt;&lt;td style=&quot;border-right: 1px solid rgb(0, 0, 0); border-bottom: 1px solid rgb(0, 0, 0); overflow: hidden; padding: 0px 3px; vertical-align: bottom; overflow-wrap: break-word;&quot;&gt;Ahmed Awsaf Chowdhury&lt;/td&gt;&lt;td style=&quot;border-right: 1px solid rgb(0, 0, 0); border-bottom: 1px solid rgb(0, 0, 0); overflow: hidden; padding: 0px 3px; vertical-align: bottom; overflow-wrap: break-word; text-align: center;&quot;&gt;20101344&lt;/td&gt;&lt;/tr&gt;&lt;tr style=&quot;height: 21px&quot;&gt;&lt;td style=&quot;border-right: 1px solid rgb(0, 0, 0); border-bottom: 1px solid rgb(0, 0, 0); overflow: hidden; padding: 0px 3px; vertical-align: bottom; overflow-wrap: break-word;&quot;&gt;Shariful Islam&lt;/td&gt;&lt;td style=&quot;border-right: 1px solid rgb(0, 0, 0); border-bottom: 1px solid rgb(0, 0, 0); overflow: hidden; padding: 0px 3px; vertical-align: bottom; overflow-wrap: break-word; text-align: center;&quot;&gt;19201053&lt;/td&gt;&lt;/tr&gt;&lt;/tbody&gt;&lt;/table&gt;" style="text;whiteSpace=wrap;html=1;" parent="1" vertex="1">
          <mxGeometry x="673.57" y="10" width="476.43" height="80" as="geometry" />
        </mxCell>
      </root>
    </mxGraphModel>
  </diagram>
  <diagram id="PWyHqqBmcbXUWZ8C0fg0" name="Page-2">
    <mxGraphModel dx="1178" dy="631" grid="1" gridSize="10" guides="1" tooltips="1" connect="1" arrows="1" fold="1" page="1" pageScale="1" pageWidth="1169" pageHeight="827" math="0" shadow="0">
      <root>
        <mxCell id="0" />
        <mxCell id="1" parent="0" />
        <mxCell id="sy4gXPcOc8OKl5xRbrOP-1" value="Alternative" style="shape=umlFrame;whiteSpace=wrap;html=1;allowArrows=0;connectable=1;strokeColor=#FF0000;" vertex="1" parent="1">
          <mxGeometry x="10" y="120" width="1150" height="1200" as="geometry" />
        </mxCell>
        <mxCell id="UrVC5xa7nz_4EfG0V2P6-1" value="Alternative" style="shape=umlFrame;whiteSpace=wrap;html=1;allowArrows=0;connectable=0;strokeColor=#00FF00;" vertex="1" parent="1">
          <mxGeometry x="30" y="330" width="1110" height="970" as="geometry" />
        </mxCell>
        <mxCell id="5FFCQ1Kqt_zDElPKZnUD-1" value="Alternative" style="shape=umlFrame;whiteSpace=wrap;html=1;allowArrows=0;connectable=1;strokeColor=#0000FF;" vertex="1" parent="1">
          <mxGeometry x="49.07" y="810" width="1070" height="470" as="geometry" />
        </mxCell>
        <mxCell id="sy4gXPcOc8OKl5xRbrOP-17" value="" style="endArrow=none;dashed=1;html=1;rounded=0;exitX=0;exitY=0.102;exitDx=0;exitDy=0;exitPerimeter=0;entryX=1;entryY=0.102;entryDx=0;entryDy=0;entryPerimeter=0;strokeColor=#FF0000;" edge="1" parent="1">
          <mxGeometry width="50" height="50" relative="1" as="geometry">
            <mxPoint x="10" y="295.74000000000024" as="sourcePoint" />
            <mxPoint x="1160" y="295.74000000000024" as="targetPoint" />
          </mxGeometry>
        </mxCell>
        <mxCell id="sy4gXPcOc8OKl5xRbrOP-4" value="Application DB" style="shape=umlLifeline;perimeter=lifelinePerimeter;container=1;collapsible=0;recursiveResize=0;rounded=0;shadow=0;strokeWidth=1;movable=1;" vertex="1" parent="1">
          <mxGeometry x="310" y="30" width="100" height="1460" as="geometry" />
        </mxCell>
        <mxCell id="sy4gXPcOc8OKl5xRbrOP-9" value="Google Pay" style="shape=umlLifeline;perimeter=lifelinePerimeter;container=1;collapsible=0;recursiveResize=0;rounded=0;shadow=0;strokeWidth=1;movable=1;" vertex="1" parent="1">
          <mxGeometry x="670" y="30" width="100" height="1460" as="geometry" />
        </mxCell>
        <mxCell id="sy4gXPcOc8OKl5xRbrOP-11" value="Application" style="shape=umlLifeline;perimeter=lifelinePerimeter;container=1;collapsible=0;recursiveResize=0;rounded=0;shadow=0;strokeWidth=1;movable=1;" vertex="1" parent="1">
          <mxGeometry x="990" y="30" width="100" height="1460" as="geometry" />
        </mxCell>
        <mxCell id="sy4gXPcOc8OKl5xRbrOP-18" value="[Settings]" style="text;html=1;strokeColor=none;fillColor=none;align=center;verticalAlign=middle;whiteSpace=wrap;rounded=0;fontSize=14;" vertex="1" parent="1">
          <mxGeometry x="10" y="300" width="70" height="30" as="geometry" />
        </mxCell>
        <mxCell id="sy4gXPcOc8OKl5xRbrOP-19" value="" style="group" vertex="1" connectable="0" parent="1">
          <mxGeometry x="70" y="30" width="20" height="40" as="geometry" />
        </mxCell>
        <mxCell id="sy4gXPcOc8OKl5xRbrOP-24" value="[Filter List]" style="text;html=1;strokeColor=none;fillColor=none;align=center;verticalAlign=middle;whiteSpace=wrap;rounded=0;fontSize=14;" vertex="1" parent="1">
          <mxGeometry x="10" y="150" width="70" height="30" as="geometry" />
        </mxCell>
        <mxCell id="sy4gXPcOc8OKl5xRbrOP-22" value="User" style="shape=umlActor;verticalLabelPosition=bottom;verticalAlign=top;html=1;outlineConnect=0;movable=1;" vertex="1" parent="1">
          <mxGeometry x="110" y="30" width="20" height="40" as="geometry" />
        </mxCell>
        <mxCell id="sy4gXPcOc8OKl5xRbrOP-23" value="" style="endArrow=none;html=1;rounded=0;dashed=1;movable=1;exitX=0.06;exitY=1.001;exitDx=0;exitDy=0;exitPerimeter=0;" edge="1" parent="1" target="sy4gXPcOc8OKl5xRbrOP-22">
          <mxGeometry width="50" height="50" relative="1" as="geometry">
            <mxPoint x="119" y="1491.37" as="sourcePoint" />
            <mxPoint x="253.33333333333331" y="299.2" as="targetPoint" />
            <Array as="points" />
          </mxGeometry>
        </mxCell>
        <mxCell id="lqV5kVnUxiKjpu2pH_zn-1" value="" style="points=[];perimeter=orthogonalPerimeter;rounded=0;shadow=0;strokeWidth=1;" vertex="1" parent="1">
          <mxGeometry x="1035" y="140" width="10" height="150" as="geometry" />
        </mxCell>
        <mxCell id="lqV5kVnUxiKjpu2pH_zn-4" value="sort selection" style="text;html=1;strokeColor=none;fillColor=none;align=center;verticalAlign=middle;whiteSpace=wrap;rounded=0;fontSize=14;" vertex="1" parent="1">
          <mxGeometry x="220" y="140" width="110" height="20" as="geometry" />
        </mxCell>
        <mxCell id="hVCU7ZESJLOJkCWcAnBM-1" value="" style="endArrow=classic;html=1;rounded=0;" edge="1" parent="1">
          <mxGeometry width="50" height="50" relative="1" as="geometry">
            <mxPoint x="120.00000000000017" y="168" as="sourcePoint" />
            <mxPoint x="1034" y="168" as="targetPoint" />
          </mxGeometry>
        </mxCell>
        <mxCell id="jrQRZruITkZVL49oGq8_-1" value="" style="points=[];perimeter=orthogonalPerimeter;rounded=0;shadow=0;strokeWidth=1;" vertex="1" parent="1">
          <mxGeometry x="1029" y="207" width="10" height="70" as="geometry" />
        </mxCell>
        <mxCell id="jrQRZruITkZVL49oGq8_-2" value="" style="endArrow=classic;html=1;rounded=0;exitX=0.1;exitY=0.182;exitDx=0;exitDy=0;exitPerimeter=0;" edge="1" parent="1">
          <mxGeometry width="50" height="50" relative="1" as="geometry">
            <mxPoint x="1034" y="197.01999999999998" as="sourcePoint" />
            <mxPoint x="1028" y="237" as="targetPoint" />
            <Array as="points">
              <mxPoint x="978" y="197" />
              <mxPoint x="978" y="237" />
            </Array>
          </mxGeometry>
        </mxCell>
        <mxCell id="jrQRZruITkZVL49oGq8_-3" value="sort music list " style="text;html=1;strokeColor=none;fillColor=none;align=center;verticalAlign=middle;whiteSpace=wrap;rounded=0;fontSize=14;" vertex="1" parent="1">
          <mxGeometry x="870" y="207" width="108" height="30" as="geometry" />
        </mxCell>
        <mxCell id="UrVC5xa7nz_4EfG0V2P6-2" value="" style="endArrow=none;dashed=1;html=1;rounded=0;strokeColor=#00FF00;" edge="1" parent="1">
          <mxGeometry width="50" height="50" relative="1" as="geometry">
            <mxPoint x="30" y="510" as="sourcePoint" />
            <mxPoint x="1140" y="510" as="targetPoint" />
          </mxGeometry>
        </mxCell>
        <mxCell id="UrVC5xa7nz_4EfG0V2P6-9" value="" style="points=[];perimeter=orthogonalPerimeter;rounded=0;shadow=0;strokeWidth=1;" vertex="1" parent="1">
          <mxGeometry x="1035" y="340" width="10" height="150" as="geometry" />
        </mxCell>
        <mxCell id="UrVC5xa7nz_4EfG0V2P6-10" value="select favorite genre" style="text;html=1;strokeColor=none;fillColor=none;align=center;verticalAlign=middle;whiteSpace=wrap;rounded=0;fontSize=14;" vertex="1" parent="1">
          <mxGeometry x="220" y="340" width="170" height="20" as="geometry" />
        </mxCell>
        <mxCell id="UrVC5xa7nz_4EfG0V2P6-11" value="" style="endArrow=classic;html=1;rounded=0;" edge="1" parent="1">
          <mxGeometry width="50" height="50" relative="1" as="geometry">
            <mxPoint x="120.00000000000045" y="368" as="sourcePoint" />
            <mxPoint x="1034" y="368" as="targetPoint" />
          </mxGeometry>
        </mxCell>
        <mxCell id="UrVC5xa7nz_4EfG0V2P6-13" value="" style="endArrow=classic;html=1;rounded=0;exitX=0.1;exitY=0.182;exitDx=0;exitDy=0;exitPerimeter=0;" edge="1" parent="1">
          <mxGeometry width="50" height="50" relative="1" as="geometry">
            <mxPoint x="1034" y="406.02" as="sourcePoint" />
            <mxPoint x="364" y="410" as="targetPoint" />
            <Array as="points">
              <mxPoint x="978" y="406" />
            </Array>
          </mxGeometry>
        </mxCell>
        <mxCell id="UrVC5xa7nz_4EfG0V2P6-14" value="save favorite genre" style="text;html=1;strokeColor=none;fillColor=none;align=center;verticalAlign=middle;whiteSpace=wrap;rounded=0;fontSize=14;" vertex="1" parent="1">
          <mxGeometry x="850" y="380" width="148" height="20" as="geometry" />
        </mxCell>
        <mxCell id="UrVC5xa7nz_4EfG0V2P6-15" value="" style="points=[];perimeter=orthogonalPerimeter;rounded=0;shadow=0;strokeWidth=1;" vertex="1" parent="1">
          <mxGeometry x="1035" y="540" width="10" height="160" as="geometry" />
        </mxCell>
        <mxCell id="UrVC5xa7nz_4EfG0V2P6-16" value="toggle explicit preference" style="text;html=1;strokeColor=none;fillColor=none;align=center;verticalAlign=middle;whiteSpace=wrap;rounded=0;fontSize=14;" vertex="1" parent="1">
          <mxGeometry x="220" y="540" width="170" height="20" as="geometry" />
        </mxCell>
        <mxCell id="UrVC5xa7nz_4EfG0V2P6-17" value="" style="endArrow=classic;html=1;rounded=0;" edge="1" parent="1">
          <mxGeometry width="50" height="50" relative="1" as="geometry">
            <mxPoint x="120.00000000000045" y="568" as="sourcePoint" />
            <mxPoint x="1034" y="568" as="targetPoint" />
          </mxGeometry>
        </mxCell>
        <mxCell id="UrVC5xa7nz_4EfG0V2P6-18" value="" style="points=[];perimeter=orthogonalPerimeter;rounded=0;shadow=0;strokeWidth=1;" vertex="1" parent="1">
          <mxGeometry x="1028.5" y="640" width="10" height="50" as="geometry" />
        </mxCell>
        <mxCell id="UrVC5xa7nz_4EfG0V2P6-19" value="" style="endArrow=classic;html=1;rounded=0;" edge="1" parent="1">
          <mxGeometry width="50" height="50" relative="1" as="geometry">
            <mxPoint x="1034" y="630" as="sourcePoint" />
            <mxPoint x="1027.5" y="650" as="targetPoint" />
            <Array as="points">
              <mxPoint x="990" y="630" />
              <mxPoint x="990" y="650" />
            </Array>
          </mxGeometry>
        </mxCell>
        <mxCell id="UrVC5xa7nz_4EfG0V2P6-20" value="show/hide explicit songs" style="text;html=1;strokeColor=none;fillColor=none;align=center;verticalAlign=middle;whiteSpace=wrap;rounded=0;fontSize=14;" vertex="1" parent="1">
          <mxGeometry x="835" y="625" width="152.5" height="30" as="geometry" />
        </mxCell>
        <mxCell id="UrVC5xa7nz_4EfG0V2P6-21" value="[genre selection]" style="text;html=1;strokeColor=none;fillColor=none;align=center;verticalAlign=middle;whiteSpace=wrap;rounded=0;fontSize=14;" vertex="1" parent="1">
          <mxGeometry x="30" y="370" width="70" height="30" as="geometry" />
        </mxCell>
        <mxCell id="UrVC5xa7nz_4EfG0V2P6-23" value="" style="endArrow=none;dashed=1;html=1;rounded=0;strokeColor=#00FF00;" edge="1" parent="1">
          <mxGeometry width="50" height="50" relative="1" as="geometry">
            <mxPoint x="30" y="710" as="sourcePoint" />
            <mxPoint x="1140" y="710" as="targetPoint" />
          </mxGeometry>
        </mxCell>
        <mxCell id="UrVC5xa7nz_4EfG0V2P6-24" value="[explicit preference]" style="text;html=1;strokeColor=none;fillColor=none;align=center;verticalAlign=middle;whiteSpace=wrap;rounded=0;fontSize=14;" vertex="1" parent="1">
          <mxGeometry x="30" y="520" width="80" height="30" as="geometry" />
        </mxCell>
        <mxCell id="UrVC5xa7nz_4EfG0V2P6-25" value="" style="points=[];perimeter=orthogonalPerimeter;rounded=0;shadow=0;strokeWidth=1;" vertex="1" parent="1">
          <mxGeometry x="355" y="379" width="10" height="70" as="geometry" />
        </mxCell>
        <mxCell id="UrVC5xa7nz_4EfG0V2P6-26" value="" style="points=[];perimeter=orthogonalPerimeter;rounded=0;shadow=0;strokeWidth=1;" vertex="1" parent="1">
          <mxGeometry x="355" y="576" width="10" height="70" as="geometry" />
        </mxCell>
        <mxCell id="UrVC5xa7nz_4EfG0V2P6-27" value="" style="endArrow=classic;html=1;rounded=0;exitX=0.1;exitY=0.182;exitDx=0;exitDy=0;exitPerimeter=0;" edge="1" parent="1">
          <mxGeometry width="50" height="50" relative="1" as="geometry">
            <mxPoint x="1034.5" y="601.99" as="sourcePoint" />
            <mxPoint x="364" y="600" as="targetPoint" />
            <Array as="points">
              <mxPoint x="978.5" y="601.97" />
            </Array>
          </mxGeometry>
        </mxCell>
        <mxCell id="UrVC5xa7nz_4EfG0V2P6-28" value="save explicit preference" style="text;whiteSpace=wrap;html=1;" vertex="1" parent="1">
          <mxGeometry x="569" y="576" width="140" height="30" as="geometry" />
        </mxCell>
        <mxCell id="UrVC5xa7nz_4EfG0V2P6-29" value="[upgrade membership]" style="text;html=1;strokeColor=none;fillColor=none;align=center;verticalAlign=middle;whiteSpace=wrap;rounded=0;fontSize=14;" vertex="1" parent="1">
          <mxGeometry x="30" y="720" width="80" height="30" as="geometry" />
        </mxCell>
        <mxCell id="UrVC5xa7nz_4EfG0V2P6-32" value="request to upgrade membership" style="text;html=1;strokeColor=none;fillColor=none;align=center;verticalAlign=middle;whiteSpace=wrap;rounded=0;fontSize=14;" vertex="1" parent="1">
          <mxGeometry x="130" y="730" width="210" height="20" as="geometry" />
        </mxCell>
        <mxCell id="UrVC5xa7nz_4EfG0V2P6-33" value="" style="endArrow=classic;html=1;rounded=0;" edge="1" parent="1">
          <mxGeometry width="50" height="50" relative="1" as="geometry">
            <mxPoint x="121.00000000000045" y="758" as="sourcePoint" />
            <mxPoint x="1035" y="758" as="targetPoint" />
          </mxGeometry>
        </mxCell>
        <mxCell id="UrVC5xa7nz_4EfG0V2P6-34" value="" style="points=[];perimeter=orthogonalPerimeter;rounded=0;shadow=0;strokeWidth=1;" vertex="1" parent="1">
          <mxGeometry x="1035" y="740" width="10" height="530" as="geometry" />
        </mxCell>
        <mxCell id="UrVC5xa7nz_4EfG0V2P6-35" value="" style="endArrow=classic;html=1;rounded=0;" edge="1" parent="1">
          <mxGeometry width="50" height="50" relative="1" as="geometry">
            <mxPoint x="1035" y="860" as="sourcePoint" />
            <mxPoint x="726" y="859" as="targetPoint" />
          </mxGeometry>
        </mxCell>
        <mxCell id="UrVC5xa7nz_4EfG0V2P6-36" value="" style="points=[];perimeter=orthogonalPerimeter;rounded=0;shadow=0;strokeWidth=1;" vertex="1" parent="1">
          <mxGeometry x="715" y="850" width="10" height="150" as="geometry" />
        </mxCell>
        <mxCell id="UrVC5xa7nz_4EfG0V2P6-37" value="request purchase prompt" style="text;html=1;strokeColor=none;fillColor=none;align=center;verticalAlign=middle;whiteSpace=wrap;rounded=0;fontSize=14;" vertex="1" parent="1">
          <mxGeometry x="757" y="840" width="221" height="20" as="geometry" />
        </mxCell>
        <mxCell id="UrVC5xa7nz_4EfG0V2P6-38" value="" style="endArrow=classic;html=1;rounded=0;" edge="1" parent="1">
          <mxGeometry width="50" height="50" relative="1" as="geometry">
            <mxPoint x="715" y="885" as="sourcePoint" />
            <mxPoint x="120" y="884" as="targetPoint" />
          </mxGeometry>
        </mxCell>
        <mxCell id="UrVC5xa7nz_4EfG0V2P6-39" value="show purchase prompt" style="text;html=1;strokeColor=none;fillColor=none;align=center;verticalAlign=middle;whiteSpace=wrap;rounded=0;fontSize=14;" vertex="1" parent="1">
          <mxGeometry x="535" y="860" width="168" height="20" as="geometry" />
        </mxCell>
        <mxCell id="UrVC5xa7nz_4EfG0V2P6-40" value="enter payment details" style="text;html=1;strokeColor=none;fillColor=none;align=center;verticalAlign=middle;whiteSpace=wrap;rounded=0;fontSize=14;" vertex="1" parent="1">
          <mxGeometry x="89" y="900" width="221" height="20" as="geometry" />
        </mxCell>
        <mxCell id="UrVC5xa7nz_4EfG0V2P6-41" value="" style="endArrow=classic;html=1;rounded=0;" edge="1" parent="1">
          <mxGeometry width="50" height="50" relative="1" as="geometry">
            <mxPoint x="120" y="920" as="sourcePoint" />
            <mxPoint x="715" y="920" as="targetPoint" />
          </mxGeometry>
        </mxCell>
        <mxCell id="5FFCQ1Kqt_zDElPKZnUD-2" value="" style="endArrow=none;dashed=1;html=1;rounded=0;exitX=-0.001;exitY=0.428;exitDx=0;exitDy=0;exitPerimeter=0;strokeColor=#0000FF;entryX=1.001;entryY=0.427;entryDx=0;entryDy=0;entryPerimeter=0;" edge="1" parent="1">
          <mxGeometry width="50" height="50" relative="1" as="geometry">
            <mxPoint x="48" y="1054.1599999999999" as="sourcePoint" />
            <mxPoint x="1120.1399999999999" y="1053.69" as="targetPoint" />
          </mxGeometry>
        </mxCell>
        <mxCell id="5FFCQ1Kqt_zDElPKZnUD-12" value="select payment method" style="text;html=1;strokeColor=none;fillColor=none;align=center;verticalAlign=middle;whiteSpace=wrap;rounded=0;fontSize=14;" vertex="1" parent="1">
          <mxGeometry x="130" y="770" width="170" height="20" as="geometry" />
        </mxCell>
        <mxCell id="5FFCQ1Kqt_zDElPKZnUD-13" value="" style="endArrow=classic;html=1;rounded=0;" edge="1" parent="1">
          <mxGeometry width="50" height="50" relative="1" as="geometry">
            <mxPoint x="121.00000000000045" y="798" as="sourcePoint" />
            <mxPoint x="1035" y="798" as="targetPoint" />
          </mxGeometry>
        </mxCell>
        <mxCell id="5FFCQ1Kqt_zDElPKZnUD-14" value="[google pay]" style="text;html=1;strokeColor=none;fillColor=none;align=center;verticalAlign=middle;whiteSpace=wrap;rounded=0;fontSize=14;" vertex="1" parent="1">
          <mxGeometry x="50" y="840" width="80" height="30" as="geometry" />
        </mxCell>
        <mxCell id="5FFCQ1Kqt_zDElPKZnUD-15" value="" style="points=[];perimeter=orthogonalPerimeter;rounded=0;shadow=0;strokeWidth=1;" vertex="1" parent="1">
          <mxGeometry x="708.5" y="945" width="10" height="25" as="geometry" />
        </mxCell>
        <mxCell id="5FFCQ1Kqt_zDElPKZnUD-16" value="" style="endArrow=classic;html=1;rounded=0;" edge="1" parent="1">
          <mxGeometry width="50" height="50" relative="1" as="geometry">
            <mxPoint x="714" y="935" as="sourcePoint" />
            <mxPoint x="707.5" y="955" as="targetPoint" />
            <Array as="points">
              <mxPoint x="670" y="935" />
              <mxPoint x="670" y="955" />
            </Array>
          </mxGeometry>
        </mxCell>
        <mxCell id="5FFCQ1Kqt_zDElPKZnUD-17" value="verify purchage" style="text;html=1;strokeColor=none;fillColor=none;align=center;verticalAlign=middle;whiteSpace=wrap;rounded=0;fontSize=14;" vertex="1" parent="1">
          <mxGeometry x="569" y="930" width="100" height="30" as="geometry" />
        </mxCell>
        <mxCell id="5FFCQ1Kqt_zDElPKZnUD-18" value="" style="endArrow=classic;html=1;rounded=0;dashed=1;" edge="1" parent="1">
          <mxGeometry width="50" height="50" relative="1" as="geometry">
            <mxPoint x="725" y="980" as="sourcePoint" />
            <mxPoint x="1035" y="980" as="targetPoint" />
          </mxGeometry>
        </mxCell>
        <mxCell id="5FFCQ1Kqt_zDElPKZnUD-19" value="purchase status" style="text;html=1;strokeColor=none;fillColor=none;align=center;verticalAlign=middle;whiteSpace=wrap;rounded=0;fontSize=14;" vertex="1" parent="1">
          <mxGeometry x="790" y="960" width="150" height="15" as="geometry" />
        </mxCell>
        <mxCell id="5FFCQ1Kqt_zDElPKZnUD-20" value="" style="points=[];perimeter=orthogonalPerimeter;rounded=0;shadow=0;strokeWidth=1;" vertex="1" parent="1">
          <mxGeometry x="355" y="990" width="10" height="35" as="geometry" />
        </mxCell>
        <mxCell id="5FFCQ1Kqt_zDElPKZnUD-21" value="" style="endArrow=classic;html=1;rounded=0;" edge="1" parent="1">
          <mxGeometry width="50" height="50" relative="1" as="geometry">
            <mxPoint x="1034" y="1010" as="sourcePoint" />
            <mxPoint x="364" y="1010" as="targetPoint" />
          </mxGeometry>
        </mxCell>
        <mxCell id="5FFCQ1Kqt_zDElPKZnUD-22" value="[if purchase success] save premium status" style="text;html=1;strokeColor=none;fillColor=none;align=center;verticalAlign=middle;whiteSpace=wrap;rounded=0;fontSize=14;" vertex="1" parent="1">
          <mxGeometry x="740" y="990" width="270" height="20" as="geometry" />
        </mxCell>
        <mxCell id="5FFCQ1Kqt_zDElPKZnUD-23" value="" style="endArrow=classic;html=1;rounded=0;" edge="1" parent="1">
          <mxGeometry width="50" height="50" relative="1" as="geometry">
            <mxPoint x="1035" y="1040" as="sourcePoint" />
            <mxPoint x="119" y="1039" as="targetPoint" />
          </mxGeometry>
        </mxCell>
        <mxCell id="5FFCQ1Kqt_zDElPKZnUD-24" value="[if purchase failed] purchase failed message" style="text;html=1;strokeColor=none;fillColor=none;align=center;verticalAlign=middle;whiteSpace=wrap;rounded=0;fontSize=14;" vertex="1" parent="1">
          <mxGeometry x="730" y="1020" width="280" height="20" as="geometry" />
        </mxCell>
        <mxCell id="5FFCQ1Kqt_zDElPKZnUD-25" value="Bkash" style="shape=umlLifeline;perimeter=lifelinePerimeter;container=1;collapsible=0;recursiveResize=0;rounded=0;shadow=0;strokeWidth=1;movable=1;" vertex="1" parent="1">
          <mxGeometry x="490" y="30" width="100" height="1460" as="geometry" />
        </mxCell>
        <mxCell id="5FFCQ1Kqt_zDElPKZnUD-28" value="" style="points=[];perimeter=orthogonalPerimeter;rounded=0;shadow=0;strokeWidth=1;" vertex="1" parent="5FFCQ1Kqt_zDElPKZnUD-25">
          <mxGeometry x="45" y="1034" width="10" height="150" as="geometry" />
        </mxCell>
        <mxCell id="5FFCQ1Kqt_zDElPKZnUD-34" value="" style="points=[];perimeter=orthogonalPerimeter;rounded=0;shadow=0;strokeWidth=1;" vertex="1" parent="5FFCQ1Kqt_zDElPKZnUD-25">
          <mxGeometry x="38.5" y="1129" width="10" height="25" as="geometry" />
        </mxCell>
        <mxCell id="5FFCQ1Kqt_zDElPKZnUD-35" value="" style="endArrow=classic;html=1;rounded=0;" edge="1" parent="5FFCQ1Kqt_zDElPKZnUD-25">
          <mxGeometry width="50" height="50" relative="1" as="geometry">
            <mxPoint x="44" y="1119" as="sourcePoint" />
            <mxPoint x="37.5" y="1139" as="targetPoint" />
            <Array as="points">
              <mxPoint y="1119" />
              <mxPoint y="1139" />
            </Array>
          </mxGeometry>
        </mxCell>
        <mxCell id="5FFCQ1Kqt_zDElPKZnUD-36" value="verify purchage" style="text;html=1;strokeColor=none;fillColor=none;align=center;verticalAlign=middle;whiteSpace=wrap;rounded=0;fontSize=14;" vertex="1" parent="5FFCQ1Kqt_zDElPKZnUD-25">
          <mxGeometry x="-101" y="1114" width="100" height="30" as="geometry" />
        </mxCell>
        <mxCell id="5FFCQ1Kqt_zDElPKZnUD-30" value="show purchase prompt" style="text;html=1;strokeColor=none;fillColor=none;align=center;verticalAlign=middle;whiteSpace=wrap;rounded=0;fontSize=14;" vertex="1" parent="5FFCQ1Kqt_zDElPKZnUD-25">
          <mxGeometry x="-135" y="1044" width="168" height="20" as="geometry" />
        </mxCell>
        <mxCell id="5FFCQ1Kqt_zDElPKZnUD-27" value="" style="endArrow=classic;html=1;rounded=0;" edge="1" parent="1">
          <mxGeometry width="50" height="50" relative="1" as="geometry">
            <mxPoint x="1035" y="1074" as="sourcePoint" />
            <mxPoint x="545" y="1073" as="targetPoint" />
          </mxGeometry>
        </mxCell>
        <mxCell id="5FFCQ1Kqt_zDElPKZnUD-29" value="" style="endArrow=classic;html=1;rounded=0;" edge="1" parent="1">
          <mxGeometry width="50" height="50" relative="1" as="geometry">
            <mxPoint x="535" y="1098" as="sourcePoint" />
            <mxPoint x="120" y="1098" as="targetPoint" />
          </mxGeometry>
        </mxCell>
        <mxCell id="5FFCQ1Kqt_zDElPKZnUD-31" value="enter payment details" style="text;html=1;strokeColor=none;fillColor=none;align=center;verticalAlign=middle;whiteSpace=wrap;rounded=0;fontSize=14;" vertex="1" parent="1">
          <mxGeometry x="89" y="1114" width="221" height="20" as="geometry" />
        </mxCell>
        <mxCell id="5FFCQ1Kqt_zDElPKZnUD-32" value="" style="endArrow=classic;html=1;rounded=0;" edge="1" parent="1">
          <mxGeometry width="50" height="50" relative="1" as="geometry">
            <mxPoint x="120" y="1134" as="sourcePoint" />
            <mxPoint x="535" y="1134" as="targetPoint" />
          </mxGeometry>
        </mxCell>
        <mxCell id="5FFCQ1Kqt_zDElPKZnUD-37" value="" style="endArrow=classic;html=1;rounded=0;dashed=1;" edge="1" parent="1">
          <mxGeometry width="50" height="50" relative="1" as="geometry">
            <mxPoint x="545" y="1194" as="sourcePoint" />
            <mxPoint x="1035" y="1194" as="targetPoint" />
          </mxGeometry>
        </mxCell>
        <mxCell id="5FFCQ1Kqt_zDElPKZnUD-38" value="purchase status" style="text;html=1;strokeColor=none;fillColor=none;align=center;verticalAlign=middle;whiteSpace=wrap;rounded=0;fontSize=14;" vertex="1" parent="1">
          <mxGeometry x="790" y="1174" width="150" height="15" as="geometry" />
        </mxCell>
        <mxCell id="5FFCQ1Kqt_zDElPKZnUD-39" value="" style="points=[];perimeter=orthogonalPerimeter;rounded=0;shadow=0;strokeWidth=1;" vertex="1" parent="1">
          <mxGeometry x="355" y="1204" width="10" height="35" as="geometry" />
        </mxCell>
        <mxCell id="5FFCQ1Kqt_zDElPKZnUD-40" value="" style="endArrow=classic;html=1;rounded=0;" edge="1" parent="1">
          <mxGeometry width="50" height="50" relative="1" as="geometry">
            <mxPoint x="1034" y="1224" as="sourcePoint" />
            <mxPoint x="364" y="1224" as="targetPoint" />
          </mxGeometry>
        </mxCell>
        <mxCell id="5FFCQ1Kqt_zDElPKZnUD-41" value="[if purchase success] save premium status" style="text;html=1;strokeColor=none;fillColor=none;align=center;verticalAlign=middle;whiteSpace=wrap;rounded=0;fontSize=14;" vertex="1" parent="1">
          <mxGeometry x="740" y="1204" width="270" height="20" as="geometry" />
        </mxCell>
        <mxCell id="5FFCQ1Kqt_zDElPKZnUD-42" value="" style="endArrow=classic;html=1;rounded=0;" edge="1" parent="1">
          <mxGeometry width="50" height="50" relative="1" as="geometry">
            <mxPoint x="1035" y="1254" as="sourcePoint" />
            <mxPoint x="119" y="1253" as="targetPoint" />
          </mxGeometry>
        </mxCell>
        <mxCell id="5FFCQ1Kqt_zDElPKZnUD-43" value="[if purchase failed] purchase failed message" style="text;html=1;strokeColor=none;fillColor=none;align=center;verticalAlign=middle;whiteSpace=wrap;rounded=0;fontSize=14;" vertex="1" parent="1">
          <mxGeometry x="730" y="1234" width="280" height="20" as="geometry" />
        </mxCell>
        <mxCell id="5FFCQ1Kqt_zDElPKZnUD-44" value="[bkash]" style="text;html=1;strokeColor=none;fillColor=none;align=center;verticalAlign=middle;whiteSpace=wrap;rounded=0;fontSize=14;" vertex="1" parent="1">
          <mxGeometry x="50" y="1060" width="50" height="20" as="geometry" />
        </mxCell>
      </root>
    </mxGraphModel>
  </diagram>
  <diagram id="eJlGGiFfrD5RuQrHGLyt" name="Page-3">
    <mxGraphModel dx="2062" dy="1104" grid="1" gridSize="10" guides="1" tooltips="1" connect="1" arrows="1" fold="1" page="1" pageScale="1" pageWidth="1169" pageHeight="827" math="0" shadow="0">
      <root>
        <mxCell id="0" />
        <mxCell id="1" parent="0" />
        <mxCell id="uTjMMtSJIhS5mFQMlQv_-1" value="Alternative" style="shape=umlFrame;whiteSpace=wrap;html=1;allowArrows=0;connectable=1;strokeColor=#FF0000;" vertex="1" parent="1">
          <mxGeometry x="10" y="120" width="1150" height="1200" as="geometry" />
        </mxCell>
        <mxCell id="uTjMMtSJIhS5mFQMlQv_-2" value="Application DB" style="shape=umlLifeline;perimeter=lifelinePerimeter;container=1;collapsible=0;recursiveResize=0;rounded=0;shadow=0;strokeWidth=1;movable=1;" vertex="1" parent="1">
          <mxGeometry x="310" y="30" width="100" height="1460" as="geometry" />
        </mxCell>
        <mxCell id="uTjMMtSJIhS5mFQMlQv_-3" value="Application" style="shape=umlLifeline;perimeter=lifelinePerimeter;container=1;collapsible=0;recursiveResize=0;rounded=0;shadow=0;strokeWidth=1;movable=1;" vertex="1" parent="1">
          <mxGeometry x="990" y="30" width="100" height="1460" as="geometry" />
        </mxCell>
        <mxCell id="uTjMMtSJIhS5mFQMlQv_-4" value="User" style="shape=umlActor;verticalLabelPosition=bottom;verticalAlign=top;html=1;outlineConnect=0;movable=1;" vertex="1" parent="1">
          <mxGeometry x="110" y="30" width="20" height="40" as="geometry" />
        </mxCell>
        <mxCell id="uTjMMtSJIhS5mFQMlQv_-5" value="" style="endArrow=none;html=1;rounded=0;dashed=1;movable=1;exitX=0.06;exitY=1.001;exitDx=0;exitDy=0;exitPerimeter=0;" edge="1" parent="1" target="uTjMMtSJIhS5mFQMlQv_-4">
          <mxGeometry width="50" height="50" relative="1" as="geometry">
            <mxPoint x="119" y="1491.37" as="sourcePoint" />
            <mxPoint x="253.33333333333331" y="299.2" as="targetPoint" />
            <Array as="points" />
          </mxGeometry>
        </mxCell>
        <mxCell id="uTjMMtSJIhS5mFQMlQv_-6" value="Karaoke Activity" style="shape=umlLifeline;perimeter=lifelinePerimeter;container=1;collapsible=0;recursiveResize=0;rounded=0;shadow=0;strokeWidth=1;movable=1;" vertex="1" parent="1">
          <mxGeometry x="630" y="30" width="100" height="1460" as="geometry" />
        </mxCell>
      </root>
    </mxGraphModel>
  </diagram>
</mxfile>
